<mxfile host="app.diagrams.net" modified="2024-05-21T09:45:36.092Z" agent="Mozilla/5.0 (Windows NT 10.0; Win64; x64) AppleWebKit/537.36 (KHTML, like Gecko) Chrome/123.0.0.0 Safari/537.36 OPR/109.0.0.0" etag="hE_0D7HLvg2barJxOl1x" version="24.4.4" type="device">
  <diagram name="Page-1" id="Sj2x6cW2y5JQ7Eo2TBlC">
    <mxGraphModel dx="655" dy="663" grid="1" gridSize="10" guides="1" tooltips="1" connect="1" arrows="1" fold="1" page="1" pageScale="1" pageWidth="827" pageHeight="1169" math="0" shadow="0">
      <root>
        <mxCell id="0" />
        <mxCell id="1" parent="0" />
        <mxCell id="gwOjxGkQuXVdQYi5bwYu-313" value="Менеджер" style="html=1;whiteSpace=wrap;" vertex="1" parent="1">
          <mxGeometry x="50" y="60" width="110" height="50" as="geometry" />
        </mxCell>
        <mxCell id="gwOjxGkQuXVdQYi5bwYu-314" value="" style="html=1;points=[[0,0,0,0,5],[0,1,0,0,-5],[1,0,0,0,5],[1,1,0,0,-5]];perimeter=orthogonalPerimeter;outlineConnect=0;targetShapes=umlLifeline;portConstraint=eastwest;newEdgeStyle={&quot;curved&quot;:0,&quot;rounded&quot;:0};" vertex="1" parent="1">
          <mxGeometry x="50" y="130" width="10" height="330" as="geometry" />
        </mxCell>
        <mxCell id="gwOjxGkQuXVdQYi5bwYu-315" value="Программа" style="html=1;whiteSpace=wrap;" vertex="1" parent="1">
          <mxGeometry x="274" y="60" width="110" height="50" as="geometry" />
        </mxCell>
        <mxCell id="gwOjxGkQuXVdQYi5bwYu-316" value="бд" style="html=1;whiteSpace=wrap;" vertex="1" parent="1">
          <mxGeometry x="470" y="60" width="110" height="50" as="geometry" />
        </mxCell>
        <mxCell id="gwOjxGkQuXVdQYi5bwYu-317" value="Открыть список отзывов" style="endArrow=block;endSize=16;endFill=0;html=1;rounded=0;" edge="1" parent="1">
          <mxGeometry width="160" relative="1" as="geometry">
            <mxPoint x="60" y="150" as="sourcePoint" />
            <mxPoint x="320" y="150" as="targetPoint" />
          </mxGeometry>
        </mxCell>
        <mxCell id="gwOjxGkQuXVdQYi5bwYu-318" value="" style="html=1;points=[[0,0,0,0,5],[0,1,0,0,-5],[1,0,0,0,5],[1,1,0,0,-5]];perimeter=orthogonalPerimeter;outlineConnect=0;targetShapes=umlLifeline;portConstraint=eastwest;newEdgeStyle={&quot;curved&quot;:0,&quot;rounded&quot;:0};" vertex="1" parent="1">
          <mxGeometry x="324" y="120" width="10" height="340" as="geometry" />
        </mxCell>
        <mxCell id="gwOjxGkQuXVdQYi5bwYu-319" value="" style="html=1;points=[[0,0,0,0,5],[0,1,0,0,-5],[1,0,0,0,5],[1,1,0,0,-5]];perimeter=orthogonalPerimeter;outlineConnect=0;targetShapes=umlLifeline;portConstraint=eastwest;newEdgeStyle={&quot;curved&quot;:0,&quot;rounded&quot;:0};" vertex="1" parent="1">
          <mxGeometry x="520" y="350" width="10" height="110" as="geometry" />
        </mxCell>
        <mxCell id="gwOjxGkQuXVdQYi5bwYu-320" value="Запрос для добавления&lt;br&gt;ответа" style="endArrow=block;endSize=16;endFill=0;html=1;rounded=0;" edge="1" parent="1">
          <mxGeometry x="0.0036" width="160" relative="1" as="geometry">
            <mxPoint x="334" y="370" as="sourcePoint" />
            <mxPoint x="520" y="370" as="targetPoint" />
            <mxPoint as="offset" />
          </mxGeometry>
        </mxCell>
        <mxCell id="gwOjxGkQuXVdQYi5bwYu-321" value="" style="endArrow=open;endFill=1;endSize=12;html=1;rounded=0;" edge="1" parent="1" target="gwOjxGkQuXVdQYi5bwYu-318">
          <mxGeometry width="160" relative="1" as="geometry">
            <mxPoint x="520" y="430" as="sourcePoint" />
            <mxPoint x="60" y="430" as="targetPoint" />
          </mxGeometry>
        </mxCell>
        <mxCell id="gwOjxGkQuXVdQYi5bwYu-322" value="Вернуть результат" style="edgeLabel;html=1;align=center;verticalAlign=middle;resizable=0;points=[];" vertex="1" connectable="0" parent="gwOjxGkQuXVdQYi5bwYu-321">
          <mxGeometry x="0.0056" y="-2" relative="1" as="geometry">
            <mxPoint as="offset" />
          </mxGeometry>
        </mxCell>
        <mxCell id="gwOjxGkQuXVdQYi5bwYu-323" value="Вывод списка отзывов" style="endArrow=block;endSize=16;endFill=0;html=1;rounded=0;" edge="1" parent="1">
          <mxGeometry width="160" relative="1" as="geometry">
            <mxPoint x="320" y="430" as="sourcePoint" />
            <mxPoint x="60" y="430.0000000000001" as="targetPoint" />
            <mxPoint as="offset" />
          </mxGeometry>
        </mxCell>
        <mxCell id="gwOjxGkQuXVdQYi5bwYu-324" value="Вывод список отзывов" style="endArrow=block;endSize=16;endFill=0;html=1;rounded=0;" edge="1" parent="1" target="gwOjxGkQuXVdQYi5bwYu-314">
          <mxGeometry width="160" relative="1" as="geometry">
            <mxPoint x="320" y="220" as="sourcePoint" />
            <mxPoint x="370" y="220" as="targetPoint" />
            <mxPoint as="offset" />
          </mxGeometry>
        </mxCell>
        <mxCell id="gwOjxGkQuXVdQYi5bwYu-325" value="Нажать кнопку ответить" style="endArrow=block;endSize=16;endFill=0;html=1;rounded=0;" edge="1" parent="1">
          <mxGeometry x="0.0033" width="160" relative="1" as="geometry">
            <mxPoint x="64" y="270" as="sourcePoint" />
            <mxPoint x="324" y="270" as="targetPoint" />
            <mxPoint as="offset" />
          </mxGeometry>
        </mxCell>
        <mxCell id="gwOjxGkQuXVdQYi5bwYu-326" value="Написать ответ для клиента" style="endArrow=block;endSize=16;endFill=0;html=1;rounded=0;" edge="1" parent="1">
          <mxGeometry width="160" relative="1" as="geometry">
            <mxPoint x="60" y="320" as="sourcePoint" />
            <mxPoint x="320" y="320" as="targetPoint" />
          </mxGeometry>
        </mxCell>
        <mxCell id="gwOjxGkQuXVdQYi5bwYu-327" value="Нажать на кнопку сохранить" style="endArrow=block;endSize=16;endFill=0;html=1;rounded=0;" edge="1" parent="1">
          <mxGeometry width="160" relative="1" as="geometry">
            <mxPoint x="64" y="370" as="sourcePoint" />
            <mxPoint x="324" y="370" as="targetPoint" />
          </mxGeometry>
        </mxCell>
      </root>
    </mxGraphModel>
  </diagram>
</mxfile>
